PathFileType	4	(X/Y/Z)	/Users/mathieubourgeois/Desktop/Analyse/Traitement/Sujet_06/Data/Transformed_Sujet_06_velo_60.trc
DataRate	CameraRate	NumFrames	NumMarkers	Units	OrigDataRate	OrigDataStartFrame	OrigNumFrames
120.000000	120.000000	4	36	mm	120.000000	1401	1868
Frame#	Time	RFHD			RANE			STRN			LANI			LKNE			T10			RHUM			RWRB			C7			LFWT			LTOE			RTOE			LWRA			LBWT			RBWT			RFWT			LKNI			RKNI			RKNE			LANE			RANI			LHEE			RHEE			LHUM			LRAD			RRAD			RWRA			LWRB			LFHD			LBHD			RBHD			RSHO			LSHO			CLAV			LCAR			RCAR			
		X1	Y1	Z1	X2	Y2	Z2	X3	Y3	Z3	X4	Y4	Z4	X5	Y5	Z5	X6	Y6	Z6	X7	Y7	Z7	X8	Y8	Z8	X9	Y9	Z9	X10	Y10	Z10	X11	Y11	Z11	X12	Y12	Z12	X13	Y13	Z13	X14	Y14	Z14	X15	Y15	Z15	X16	Y16	Z16	X17	Y17	Z17	X18	Y18	Z18	X19	Y19	Z19	X20	Y20	Z20	X21	Y21	Z21	X22	Y22	Z22	X23	Y23	Z23	X24	Y24	Z24	X25	Y25	Z25	X26	Y26	Z26	X27	Y27	Z27	X28	Y28	Z28	X29	Y29	Z29	X30	Y30	Z30	X31	Y31	Z31	X32	Y32	Z32	X33	Y33	Z33	X34	Y34	Z34	X35	Y35	Z35	X36	Y36	Z36	

1402	11.675	255.5170593261719	1375.112426757812	93.49058532714838	-203.7490234375	352.5859069824219	191.6258850097656	-53.54460144042969	1199.960815429688	40.07218551635734	83.81226348876953	493.0484008789062	-52.60191345214846	124.8898315429688	880.3646850585938	-123.6386032104493	-206.875	1349.583129882812	45.9434242248534	185.0611267089843	1128.892944335938	209.5313415527343	389.4328308105469	1009.356872558594	178.9480285644531	28.08789825439453	1458.060546875	38.87154388427725	-189.3681030273438	1112.708740234375	-60.38600158691415	233.4027862548828	407.3962707519531	-124.883171081543	-75.43058776855472	211.3628845214844	200.9533538818359	411.20263671875	1026.611328125	-140.8692626953125	-347.79736328125	1137.22509765625	-7.378493785858266	-341.2568664550781	1134.464599609375	101.6819610595702	-186.3623046875	1106.08154296875	151.2810821533202	146.0780639648438	833.77197265625	-27.48043441772464	19.6368064880371	645.4195556640625	123.5223617553711	0.6855155825614671	699.3031005859375	211.5733795166015	54.7787551879883	488.8821411132812	-130.9759216308594	-169.0851287841797	342.5323181152344	119.0773010253906	3.334519863128673	479.1875915527344	-88.56580352783206	-250.6003875732422	359.8718566894531	138.1499328613281	179.3652954101563	1119.263916015625	-184.1650390625	216.8930358886719	1167.634399414062	-202.1924743652344	225.5908966064453	1162.104248046875	253.210952758789	420.6979370117188	1028.56298828125	231.39599609375	427.9358215332031	1029.313598632812	-202.0681457519531	249.2583465576172	1368.886352539062	-50.02967834472662	179.4654235839844	1502.285766601562	-51.37933731079109	187.0731964111328	1526.7822265625	75.08881378173821	46.92808532714842	1410.352905273438	177.8647918701171	22.14009094238283	1398.202514648438	-117.7277221679688	31.0966567993164	1321.755981445312	35.50474548339837	486.4289245605469	1046.887939453125	-127.9046630859375	485.3965148925781	1050.217529296875	159.77685546875	
1403	11.68333333333333	255.6281585693359	1375.116333007812	93.87459564208979	-206.3979034423828	360.7523193359375	191.5575408935546	-53.21886444091798	1200.02783203125	39.99206161499016	87.10308837890625	484.2085876464844	-52.89050292968751	123.3706817626953	872.9996337890625	-123.5435028076172	-206.6354522705078	1349.590942382812	45.72336959838856	185.2183227539062	1128.919921875	209.1689453125	389.521728515625	1009.33544921875	178.8379974365234	28.37069511413574	1458.133178710938	38.91527175903311	-188.9962921142578	1112.59912109375	-60.73193740844736	237.4166870117188	400.2109985351562	-125.1361312866211	-80.08733367919925	218.2390441894531	200.3562774658203	411.3262329101562	1026.585815429688	-140.9629211425781	-347.3763732910156	1137.19873046875	-7.832971572876088	-341.0198059082031	1134.602783203125	101.2382125854491	-186.1400604248047	1106.275146484375	150.930679321289	146.4474639892578	828.8780517578125	-29.0065956115723	26.78374099731444	649.901611328125	122.2035369873046	4.578436851501439	702.879638671875	212.1587219238281	58.18494033813478	479.7573852539062	-131.2195739746094	-172.1739807128907	350.677490234375	119.0090179443359	6.824664592742931	469.5225219726562	-88.86291503906253	-253.5115509033203	369.1304016113281	138.3014831542968	179.5666961669922	1119.462646484375	-184.3648376464844	217.1229248046875	1167.800659179688	-202.3600463867188	225.6014251708984	1161.9482421875	253.0772552490234	420.7937927246094	1028.517944335938	231.3374481201172	428.0350341796875	1029.27001953125	-202.1798858642578	249.5681610107422	1368.908081054688	-49.72751998901373	179.8672943115234	1502.33642578125	-51.1914253234864	187.3333435058594	1526.86572265625	75.29840087890618	47.09933471679685	1410.422973632812	177.875518798828	22.43675231933595	1398.478149414062	-117.6908950805665	31.36314582824707	1321.913452148438	35.46931838989251	486.5433044433594	1046.780395507812	-127.9810485839844	485.4877624511719	1050.185546875	159.7283935546875	
1404	11.69166666666667	255.7821044921875	1375.126953125	94.21965789794916	-208.8391571044922	369.6103820800781	191.7131347656249	-52.86605834960938	1200.125732421875	39.92991638183586	89.72061157226562	476.4375610351562	-53.78242111206056	121.743782043457	865.3033447265625	-123.4191284179688	-206.3668212890625	1349.647338867188	45.53839874267567	185.398696899414	1128.9365234375	208.7677001953125	389.6245422363281	1009.306884765625	178.7308959960938	28.66628074645996	1458.270874023438	38.95616149902335	-188.6642608642578	1112.530517578125	-61.11133193969736	241.1074981689453	392.3755187988281	-125.2403182983398	-84.45066833496097	225.6233978271484	199.7866363525391	411.4423217773438	1026.616088867188	-141.0507659912109	-346.9350280761719	1137.227416992188	-8.251872062683217	-340.7319641113281	1134.76708984375	100.8417816162108	-185.9295043945313	1106.492431640625	150.5774536132812	157.2799682617188	821.3394165039062	-34.06531524658206	30.19786262512206	653.8552856445312	122.6786346435546	8.588238716125462	706.6329345703125	212.8444366455078	61.22911834716798	470.4816589355469	-131.4254455566407	-174.8200225830078	359.0659790039062	119.0841751098632	10.17203807830812	459.2281188964844	-89.01322174072268	-256.0112915039062	378.6796569824219	138.6585083007812	179.8333435058594	1119.714965820312	-184.63720703125	217.3857116699219	1168.002807617188	-202.5584259033204	225.6343231201172	1161.804077148438	252.9328918457031	420.8782958984375	1028.464477539062	231.2928466796875	428.1548767089844	1029.25927734375	-202.2983093261719	249.9312133789062	1368.91552734375	-49.41266632080084	180.3103332519531	1502.406860351562	-50.98270034790046	187.6178283691406	1526.957397460938	75.50351715087884	47.30087280273435	1410.520629882812	177.8936614990234	22.78912353515626	1398.785400390625	-117.6045532226563	31.69358253479004	1322.080444335938	35.4859428405761	486.6940307617188	1046.67724609375	-128.120849609375	485.5784301757812	1050.1640625	159.6649322509766	
1405	11.7	255.9856567382812	1375.13427734375	94.51345825195307	-210.8270111083985	378.6128540039062	191.9751739501953	-52.39729309082032	1200.256591796875	39.78583145141594	94.22716522216797	465.093017578125	-53.20632171630861	119.7399597167969	857.3555297851562	-123.4587173461914	-206.0370483398438	1349.693969726562	45.36685943603504	185.6212768554687	1128.970703125	208.2655334472656	389.7394104003906	1009.264770507812	178.6061096191406	29.00789070129394	1458.41455078125	39.05439758300772	-188.2882385253906	1112.47705078125	-61.47403717041025	244.3431243896485	384.2982482910156	-125.3102874755859	-88.16520690917972	233.3612518310547	199.8296508789062	411.5715942382812	1026.602172851562	-141.1817626953125	-346.4977111816406	1137.260864257812	-8.638186454773061	-340.4627685546875	1134.960083007812	100.489532470703	-185.6589508056641	1106.735961914062	150.2154235839843	154.5594635009766	813.0257568359375	-33.59830474853518	33.51947021484374	658.0187377929688	123.2776184082031	12.66852569580075	710.6428833007812	213.5104064941406	63.76967620849611	461.039306640625	-131.6172943115235	-177.2234649658203	367.6345520019531	119.1026763916015	12.83803653717042	449.2480163574219	-89.1913757324219	-258.0625915527344	388.3667602539062	139.0778045654296	180.1365966796875	1119.963623046875	-184.9706420898438	217.7172241210938	1168.233032226562	-202.7779693603516	225.657958984375	1161.674072265625	252.8028869628906	420.9736328125	1028.432373046875	231.2265472412109	428.2839660644531	1029.184204101562	-202.4036102294922	250.2834014892578	1368.905395507812	-49.09648895263678	180.8323059082031	1502.496948242188	-50.78854751586921	188.0134429931641	1527.02734375	75.74342346191399	47.50403213500974	1410.6650390625	177.9321289062499	23.24728202819826	1399.137939453125	-117.4844589233399	32.10007095336913	1322.302124023438	35.45586013793938	486.8814392089844	1046.5146484375	-128.2536926269531	485.6934509277344	1050.130004882812	159.5851898193359	
